<mxfile host="Electron" modified="2024-06-18T09:34:24.358Z" agent="Mozilla/5.0 (Windows NT 10.0; Win64; x64) AppleWebKit/537.36 (KHTML, like Gecko) draw.io/24.2.5 Chrome/120.0.6099.109 Electron/28.1.0 Safari/537.36" etag="yQiUoPttexBdDAOEfDXV" version="24.2.5" type="device">
  <diagram name="Page-1" id="0UeVFJEmryhSao877Ihp">
    <mxGraphModel dx="1434" dy="844" grid="1" gridSize="10" guides="1" tooltips="1" connect="1" arrows="1" fold="1" page="1" pageScale="1" pageWidth="1100" pageHeight="850" math="0" shadow="0">
      <root>
        <mxCell id="0" />
        <mxCell id="1" parent="0" />
        <mxCell id="NfisqH-48eTH9140C7nL-9" value="" style="rounded=0;whiteSpace=wrap;html=1;" parent="1" vertex="1">
          <mxGeometry x="95" y="185" width="719" height="100" as="geometry" />
        </mxCell>
        <mxCell id="NfisqH-48eTH9140C7nL-10" style="edgeStyle=orthogonalEdgeStyle;rounded=0;orthogonalLoop=1;jettySize=auto;html=1;entryX=0.5;entryY=0;entryDx=0;entryDy=0;" parent="1" source="NfisqH-48eTH9140C7nL-13" target="NfisqH-48eTH9140C7nL-14" edge="1">
          <mxGeometry relative="1" as="geometry">
            <mxPoint x="345" y="100" as="sourcePoint" />
          </mxGeometry>
        </mxCell>
        <mxCell id="NfisqH-48eTH9140C7nL-11" style="edgeStyle=orthogonalEdgeStyle;rounded=0;orthogonalLoop=1;jettySize=auto;html=1;entryX=0.5;entryY=0;entryDx=0;entryDy=0;exitX=0.5;exitY=1;exitDx=0;exitDy=0;" parent="1" source="NfisqH-48eTH9140C7nL-13" target="NfisqH-48eTH9140C7nL-15" edge="1">
          <mxGeometry relative="1" as="geometry">
            <mxPoint x="435" y="145" as="sourcePoint" />
          </mxGeometry>
        </mxCell>
        <mxCell id="NfisqH-48eTH9140C7nL-12" style="edgeStyle=orthogonalEdgeStyle;rounded=0;orthogonalLoop=1;jettySize=auto;html=1;exitX=1;exitY=0.5;exitDx=0;exitDy=0;" parent="1" source="NfisqH-48eTH9140C7nL-13" target="NfisqH-48eTH9140C7nL-16" edge="1">
          <mxGeometry relative="1" as="geometry">
            <mxPoint x="525" y="100" as="sourcePoint" />
          </mxGeometry>
        </mxCell>
        <mxCell id="NfisqH-48eTH9140C7nL-13" value="&lt;h1 style=&quot;margin-top: 0px;&quot;&gt;ASP.NET&lt;/h1&gt;&lt;p&gt;Aspectos puramente web&lt;/p&gt;" style="text;html=1;whiteSpace=wrap;overflow=hidden;rounded=0;align=center;strokeColor=default;fillColor=none;" parent="1" vertex="1">
          <mxGeometry x="345" y="40" width="230" height="90" as="geometry" />
        </mxCell>
        <mxCell id="NfisqH-48eTH9140C7nL-29" style="edgeStyle=orthogonalEdgeStyle;rounded=0;orthogonalLoop=1;jettySize=auto;html=1;entryX=0.1;entryY=0.5;entryDx=0;entryDy=0;entryPerimeter=0;dashed=1;" parent="1" source="NfisqH-48eTH9140C7nL-14" target="NfisqH-48eTH9140C7nL-23" edge="1">
          <mxGeometry relative="1" as="geometry">
            <mxPoint x="124" y="430" as="targetPoint" />
            <Array as="points">
              <mxPoint x="34" y="238" />
              <mxPoint x="34" y="441" />
            </Array>
          </mxGeometry>
        </mxCell>
        <mxCell id="NfisqH-48eTH9140C7nL-14" value="&lt;h1 style=&quot;margin-top: 0px; font-size: 16px;&quot;&gt;MVC (Async)&lt;/h1&gt;" style="rounded=0;whiteSpace=wrap;html=1;" parent="1" vertex="1">
          <mxGeometry x="124" y="200" width="120" height="65" as="geometry" />
        </mxCell>
        <mxCell id="NfisqH-48eTH9140C7nL-15" value="&lt;b&gt;&lt;font style=&quot;font-size: 16px;&quot;&gt;Web Forms &lt;/font&gt;&lt;/b&gt;(.aspx)" style="rounded=0;whiteSpace=wrap;html=1;" parent="1" vertex="1">
          <mxGeometry x="400" y="205" width="120" height="60" as="geometry" />
        </mxCell>
        <mxCell id="NfisqH-48eTH9140C7nL-16" value="&lt;b&gt;&lt;font style=&quot;font-size: 16px;&quot;&gt;Web API&lt;/font&gt;&lt;/b&gt;" style="rounded=0;whiteSpace=wrap;html=1;" parent="1" vertex="1">
          <mxGeometry x="669" y="205" width="120" height="60" as="geometry" />
        </mxCell>
        <mxCell id="NfisqH-48eTH9140C7nL-18" value="Patrones de diseño" style="text;html=1;align=center;verticalAlign=middle;whiteSpace=wrap;rounded=0;fontStyle=2;direction=west;rotation=90;" parent="1" vertex="1">
          <mxGeometry x="764" y="217.5" width="130" height="30" as="geometry" />
        </mxCell>
        <mxCell id="NfisqH-48eTH9140C7nL-23" value="" style="shape=curlyBracket;whiteSpace=wrap;html=1;rounded=1;labelPosition=left;verticalLabelPosition=middle;align=right;verticalAlign=middle;" parent="1" vertex="1">
          <mxGeometry x="55" y="323" width="20" height="235" as="geometry" />
        </mxCell>
        <mxCell id="NfisqH-48eTH9140C7nL-26" value="&lt;b style=&quot;&quot;&gt;M&lt;/b&gt;&amp;nbsp;(model):&lt;div&gt;&amp;nbsp; &amp;nbsp; &amp;nbsp; - capa servicios y manejadores&lt;div&gt;&amp;nbsp; &amp;nbsp; &amp;nbsp; - lógica de negocio&lt;/div&gt;&lt;div&gt;&amp;nbsp; &amp;nbsp; &amp;nbsp; - conectividad con BBDD&lt;/div&gt;&lt;/div&gt;" style="text;html=1;align=left;verticalAlign=middle;whiteSpace=wrap;rounded=0;" parent="1" vertex="1">
          <mxGeometry x="95" y="388" width="199" height="65" as="geometry" />
        </mxCell>
        <mxCell id="NfisqH-48eTH9140C7nL-27" value="&lt;b style=&quot;&quot;&gt;V&amp;nbsp;&lt;/b&gt;(view):&lt;div&gt;&amp;nbsp; &amp;nbsp; &amp;nbsp; - views, partial- (ajax), Razor&lt;div&gt;&amp;nbsp; &amp;nbsp; &amp;nbsp; - lógica de negocio&lt;/div&gt;&lt;div&gt;&amp;nbsp; &amp;nbsp; &amp;nbsp; - conectividad con BBDD&lt;/div&gt;&lt;/div&gt;" style="text;html=1;align=left;verticalAlign=middle;whiteSpace=wrap;rounded=0;" parent="1" vertex="1">
          <mxGeometry x="95" y="453" width="199" height="65" as="geometry" />
        </mxCell>
        <mxCell id="NfisqH-48eTH9140C7nL-28" value="&lt;b style=&quot;&quot;&gt;C&amp;nbsp;&lt;/b&gt;(controler):&lt;div&gt;&amp;nbsp; &amp;nbsp; &amp;nbsp; - router&lt;/div&gt;" style="text;html=1;align=left;verticalAlign=middle;whiteSpace=wrap;rounded=0;" parent="1" vertex="1">
          <mxGeometry x="95" y="518" width="250" height="35" as="geometry" />
        </mxCell>
        <mxCell id="NfisqH-48eTH9140C7nL-30" value="&lt;b&gt;Nota:&lt;/b&gt; En los patrones de diseño MVC habitualmente la lógica de negocio y otros componentes o modelos (controlador, vista, etc.) van juntos y se ejecutan en un mismo dominio" style="text;html=1;align=left;verticalAlign=middle;whiteSpace=wrap;rounded=0;" parent="1" vertex="1">
          <mxGeometry x="64" y="570" width="238" height="70" as="geometry" />
        </mxCell>
        <mxCell id="NfisqH-48eTH9140C7nL-31" value="" style="shape=curlyBracket;whiteSpace=wrap;html=1;rounded=1;labelPosition=left;verticalLabelPosition=middle;align=right;verticalAlign=middle;" parent="1" vertex="1">
          <mxGeometry x="354" y="323" width="20" height="235" as="geometry" />
        </mxCell>
        <mxCell id="NfisqH-48eTH9140C7nL-32" value="&lt;ul style=&quot;text-align: left;&quot;&gt;&lt;li style=&quot;&quot;&gt;&lt;span style=&quot;background-color: initial;&quot;&gt;&lt;u&gt;Divide&lt;/u&gt; modelo, vista y controlador&lt;/span&gt;&lt;/li&gt;&lt;li style=&quot;&quot;&gt;&lt;span style=&quot;background-color: initial;&quot;&gt;&lt;u&gt;Más gestionable&lt;/u&gt;&lt;/span&gt;&lt;/li&gt;&lt;/ul&gt;" style="text;html=1;align=center;verticalAlign=middle;whiteSpace=wrap;rounded=0;" parent="1" vertex="1">
          <mxGeometry x="354" y="325" width="240" height="60" as="geometry" />
        </mxCell>
        <mxCell id="NfisqH-48eTH9140C7nL-33" style="edgeStyle=orthogonalEdgeStyle;rounded=0;orthogonalLoop=1;jettySize=auto;html=1;entryX=0.1;entryY=0.5;entryDx=0;entryDy=0;entryPerimeter=0;dashed=1;" parent="1" source="NfisqH-48eTH9140C7nL-15" target="NfisqH-48eTH9140C7nL-31" edge="1">
          <mxGeometry relative="1" as="geometry">
            <Array as="points">
              <mxPoint x="334" y="235" />
              <mxPoint x="334" y="441" />
            </Array>
          </mxGeometry>
        </mxCell>
        <mxCell id="NfisqH-48eTH9140C7nL-34" value="&lt;ul style=&quot;text-align: left;&quot;&gt;&lt;li style=&quot;&quot;&gt;&lt;u&gt;No viewstate&lt;/u&gt;, más eficiente y rápido&lt;/li&gt;&lt;li style=&quot;&quot;&gt;&lt;u style=&quot;background-color: initial;&quot;&gt;Menos Threads&lt;/u&gt;&lt;/li&gt;&lt;/ul&gt;" style="text;html=1;align=center;verticalAlign=middle;whiteSpace=wrap;rounded=0;" parent="1" vertex="1">
          <mxGeometry x="64" y="323" width="240" height="60" as="geometry" />
        </mxCell>
        <mxCell id="NfisqH-48eTH9140C7nL-35" value="Es un &lt;b&gt;marco IU &lt;/b&gt;que engloba:&lt;div&gt;&lt;ul&gt;&lt;li&gt;Componentes Web&lt;/li&gt;&lt;li&gt;Eventos&lt;/li&gt;&lt;li&gt;Código cliente y servidor&lt;/li&gt;&lt;li&gt;HTML y CSS personalizado&lt;/li&gt;&lt;/ul&gt;&lt;/div&gt;" style="text;html=1;align=left;verticalAlign=middle;whiteSpace=wrap;rounded=0;" parent="1" vertex="1">
          <mxGeometry x="394" y="388" width="238" height="87" as="geometry" />
        </mxCell>
        <mxCell id="NfisqH-48eTH9140C7nL-37" value="&lt;b&gt;Nota:&lt;/b&gt; La lógica de negocio va por separado" style="text;html=1;align=left;verticalAlign=middle;whiteSpace=wrap;rounded=0;" parent="1" vertex="1">
          <mxGeometry x="361" y="570" width="226" height="30" as="geometry" />
        </mxCell>
        <mxCell id="NfisqH-48eTH9140C7nL-38" value="" style="shape=curlyBracket;whiteSpace=wrap;html=1;rounded=1;labelPosition=left;verticalLabelPosition=middle;align=right;verticalAlign=middle;" parent="1" vertex="1">
          <mxGeometry x="644" y="323" width="20" height="235" as="geometry" />
        </mxCell>
        <mxCell id="NfisqH-48eTH9140C7nL-39" value="&lt;ul style=&quot;text-align: left;&quot;&gt;&lt;li style=&quot;&quot;&gt;Servicios Web (SOAP)&lt;/li&gt;&lt;li style=&quot;&quot;&gt;&lt;span style=&quot;background-color: initial;&quot;&gt;RESTFul API&lt;/span&gt;&lt;/li&gt;&lt;li style=&quot;&quot;&gt;&lt;span style=&quot;background-color: initial;&quot;&gt;WCF&lt;/span&gt;&lt;/li&gt;&lt;/ul&gt;" style="text;html=1;align=center;verticalAlign=middle;whiteSpace=wrap;rounded=0;" parent="1" vertex="1">
          <mxGeometry x="644" y="330" width="170" height="60" as="geometry" />
        </mxCell>
        <mxCell id="NfisqH-48eTH9140C7nL-40" style="edgeStyle=orthogonalEdgeStyle;rounded=0;orthogonalLoop=1;jettySize=auto;html=1;entryX=0.1;entryY=0.5;entryDx=0;entryDy=0;entryPerimeter=0;dashed=1;" parent="1" target="NfisqH-48eTH9140C7nL-38" edge="1">
          <mxGeometry relative="1" as="geometry">
            <mxPoint x="665" y="235" as="sourcePoint" />
            <Array as="points">
              <mxPoint x="624" y="235" />
              <mxPoint x="624" y="441" />
            </Array>
          </mxGeometry>
        </mxCell>
        <mxCell id="NfisqH-48eTH9140C7nL-42" value="&lt;b&gt;Nota:&lt;/b&gt; No SOA que es otra cosa especifico para aplicaciones distribuidas (también parte de WCF)" style="text;html=1;align=left;verticalAlign=middle;whiteSpace=wrap;rounded=0;" parent="1" vertex="1">
          <mxGeometry x="656" y="570" width="194" height="60" as="geometry" />
        </mxCell>
        <mxCell id="NfisqH-48eTH9140C7nL-43" value="&lt;div style=&quot;text-align: center; font-size: 14px;&quot;&gt;&lt;b style=&quot;background-color: initial;&quot;&gt;&lt;font style=&quot;font-size: 14px;&quot;&gt;&amp;nbsp; &amp;nbsp; &amp;nbsp; &amp;nbsp; &amp;nbsp; &amp;nbsp; &amp;nbsp;FRON-END&lt;/font&gt;&lt;/b&gt;&lt;/div&gt;&lt;div style=&quot;font-size: 14px;&quot;&gt;&lt;ul style=&quot;&quot;&gt;&lt;li&gt;&lt;span style=&quot;background-color: initial;&quot;&gt;Librerias JS:&lt;/span&gt;&lt;/li&gt;&lt;ul style=&quot;font-size: 13px;&quot;&gt;&lt;li style=&quot;&quot;&gt;&lt;span style=&quot;background-color: initial;&quot;&gt;JQuery&lt;/span&gt;&lt;/li&gt;&lt;li style=&quot;&quot;&gt;&lt;span style=&quot;background-color: initial;&quot;&gt;React&lt;/span&gt;&lt;/li&gt;&lt;/ul&gt;&lt;li style=&quot;font-size: 13px;&quot;&gt;IU:&lt;/li&gt;&lt;ul style=&quot;font-size: 13px;&quot;&gt;&lt;li style=&quot;text-align: left;&quot;&gt;&lt;span style=&quot;background-color: initial;&quot;&gt;CSS&lt;/span&gt;&lt;/li&gt;&lt;li style=&quot;text-align: left;&quot;&gt;&lt;span style=&quot;background-color: initial;&quot;&gt;HTML&lt;/span&gt;&lt;/li&gt;&lt;/ul&gt;&lt;/ul&gt;&lt;/div&gt;" style="rounded=0;whiteSpace=wrap;html=1;flipV=1;direction=west;rotation=0;align=left;" parent="1" vertex="1">
          <mxGeometry x="884" y="425" width="180" height="165" as="geometry" />
        </mxCell>
        <mxCell id="NfisqH-48eTH9140C7nL-46" value="&lt;div style=&quot;font-size: 14px;&quot;&gt;&lt;b style=&quot;background-color: initial;&quot;&gt;&lt;font style=&quot;font-size: 14px;&quot;&gt;&amp;nbsp; &amp;nbsp; &amp;nbsp; &amp;nbsp;BASES DE DATOS&lt;/font&gt;&lt;/b&gt;&lt;/div&gt;&lt;ul style=&quot;font-size: 14px;&quot;&gt;&lt;li style=&quot;&quot;&gt;SQL Server&lt;/li&gt;&lt;li style=&quot;font-size: 13px;&quot;&gt;&lt;span style=&quot;background-color: initial;&quot;&gt;EntityFramework&lt;/span&gt;&lt;/li&gt;&lt;/ul&gt;" style="rounded=0;whiteSpace=wrap;html=1;flipV=1;direction=west;rotation=0;align=left;" parent="1" vertex="1">
          <mxGeometry x="884" y="185" width="180" height="100" as="geometry" />
        </mxCell>
        <mxCell id="NfisqH-48eTH9140C7nL-47" value="&lt;h1 style=&quot;margin-top: 0px;&quot;&gt;Gestión de los desarrollos y su implementación&lt;/h1&gt;&lt;div&gt;&lt;ul&gt;&lt;li&gt;Desarrollo e implementación con metodología SCRUM&lt;/li&gt;&lt;li&gt;Elaboración de documentos técnico y funcional (cohordinación con los responsables, pruebas de concepto)&lt;/li&gt;&lt;li&gt;Cohordinación de tareas de maquetación y diseño para la parte IU (usabilidad y accesibilidad)&lt;/li&gt;&lt;/ul&gt;&lt;/div&gt;" style="text;html=1;whiteSpace=wrap;overflow=hidden;rounded=0;" parent="1" vertex="1">
          <mxGeometry x="54" y="680" width="620" height="120" as="geometry" />
        </mxCell>
        <mxCell id="NfisqH-48eTH9140C7nL-48" value="&lt;div style=&quot;font-size: 11px;&quot;&gt;&lt;font style=&quot;font-size: 11px;&quot;&gt;&lt;i&gt;&lt;b&gt;Note: &lt;/b&gt;They should stop using the term model for everything, as soon as data structure provides with functionality and data to a domain problem is, in it&#39;s own right a model. No matter if its related to your business or not. Everything in software engineering happens within a bounded context. The one we call domain or business. The data structure that shapes it will always be the model.&lt;/i&gt;&lt;/font&gt;&lt;/div&gt;&lt;div style=&quot;font-size: 11px;&quot;&gt;&lt;font style=&quot;font-size: 11px;&quot;&gt;&lt;i&gt;&lt;br&gt;&lt;/i&gt;&lt;/font&gt;&lt;/div&gt;&lt;div style=&quot;font-size: 11px;&quot;&gt;&lt;font style=&quot;font-size: 11px;&quot;&gt;&lt;i&gt;Note: i.e SMTP servers have their own models, message brokers and appcontainers.&lt;/i&gt;&lt;/font&gt;&lt;/div&gt;" style="text;html=1;align=left;verticalAlign=middle;whiteSpace=wrap;rounded=0;" parent="1" vertex="1">
          <mxGeometry x="742" y="660" width="325" height="140" as="geometry" />
        </mxCell>
        <mxCell id="_uEc0Xsb1bxn_ng6fuq2-1" style="edgeStyle=orthogonalEdgeStyle;rounded=0;orthogonalLoop=1;jettySize=auto;html=1;exitX=0.5;exitY=1;exitDx=0;exitDy=0;" parent="1" source="NfisqH-48eTH9140C7nL-42" target="NfisqH-48eTH9140C7nL-42" edge="1">
          <mxGeometry relative="1" as="geometry" />
        </mxCell>
        <mxCell id="_uEc0Xsb1bxn_ng6fuq2-3" value="" style="sketch=0;html=1;aspect=fixed;strokeColor=none;shadow=0;fillColor=#3B8DF1;verticalAlign=top;labelPosition=center;verticalLabelPosition=bottom;shape=mxgraph.gcp2.globe_world" parent="1" vertex="1">
          <mxGeometry x="380" y="50" width="21.05" height="20" as="geometry" />
        </mxCell>
        <mxCell id="_uEc0Xsb1bxn_ng6fuq2-9" value="" style="endArrow=none;dashed=1;html=1;rounded=0;" parent="1" edge="1">
          <mxGeometry width="50" height="50" relative="1" as="geometry">
            <mxPoint x="870" y="640" as="sourcePoint" />
            <mxPoint x="870" y="180" as="targetPoint" />
          </mxGeometry>
        </mxCell>
        <mxCell id="_uEc0Xsb1bxn_ng6fuq2-10" value="De forma transversal" style="text;html=1;align=center;verticalAlign=middle;whiteSpace=wrap;rounded=0;fontStyle=2;direction=west;rotation=0;" parent="1" vertex="1">
          <mxGeometry x="909" y="595" width="130" height="30" as="geometry" />
        </mxCell>
        <mxCell id="e9PnDWH8C_Nxk6azWH2l-1" value="&lt;div style=&quot;text-align: center;&quot;&gt;&lt;b style=&quot;background-color: initial;&quot;&gt;&lt;font style=&quot;font-size: 14px;&quot;&gt;&amp;nbsp; &amp;nbsp; &amp;nbsp; &amp;nbsp; &amp;nbsp; &amp;nbsp; &amp;nbsp; IIS&lt;/font&gt;&lt;/b&gt;&lt;/div&gt;&lt;ul&gt;&lt;li style=&quot;text-align: center;&quot;&gt;HTTP Handlers&lt;/li&gt;&lt;li style=&quot;&quot;&gt;&lt;span style=&quot;background-color: initial;&quot;&gt;HTTP Modules&lt;/span&gt;&lt;/li&gt;&lt;/ul&gt;" style="rounded=0;whiteSpace=wrap;html=1;flipV=1;direction=west;rotation=0;align=left;" parent="1" vertex="1">
          <mxGeometry x="884" y="305" width="180" height="100" as="geometry" />
        </mxCell>
      </root>
    </mxGraphModel>
  </diagram>
</mxfile>
